HIERARCHY
ROOT Hips
{
	OFFSET	0.00	0.00	0.00
	CHANNELS 6 Xposition Yposition Zposition Zrotation Xrotation Yrotation
	JOINT LeftUpLeg
	{
		OFFSET	 0.126116	-0.065224	 0.014019
		CHANNELS 3 Zrotation Xrotation Yrotation
		JOINT LeftLeg
		{
			OFFSET	 0.000000	 0.569914	 0.000000
			CHANNELS 3 Zrotation Xrotation Yrotation
			JOINT LeftFoot
			{
				OFFSET	 0.000000	 0.544423	 0.000000
				CHANNELS 3 Zrotation Xrotation Yrotation
				JOINT LeftToeBase
				{
					OFFSET	 0.000000	 0.207117	 0.000000
					CHANNELS 3 Zrotation Xrotation Yrotation
					End Site
					{
						OFFSET	 0.000000	 0.207117	 0.000000
					}
				}
			}
		}
	}
	JOINT RightUpLeg
	{
		OFFSET	-0.124023	-0.065224	 0.008373
		CHANNELS 3 Zrotation Xrotation Yrotation
		JOINT RightLeg
		{
			OFFSET	 0.000000	 0.570047	 0.000000
			CHANNELS 3 Zrotation Xrotation Yrotation
			JOINT RightFoot
			{
				OFFSET	 0.000000	 0.544354	 0.000000
				CHANNELS 3 Zrotation Xrotation Yrotation
				JOINT RightToeBase
				{
					OFFSET	 0.000000	 0.207540	 0.000000
					CHANNELS 3 Zrotation Xrotation Yrotation
					End Site
					{
						OFFSET	 0.000000	 0.207540	 0.000000
					}
				}
			}
		}
	}
	JOINT Spine
	{
		OFFSET	 0.000184	 0.117403	 0.007763
		CHANNELS 3 Zrotation Xrotation Yrotation
		JOINT Spine1
		{
			OFFSET	 0.000000	 0.137269	 0.000000
			CHANNELS 3 Zrotation Xrotation Yrotation
			JOINT Spine2
			{
				OFFSET	 0.000000	 0.156879	 0.000000
				CHANNELS 3 Zrotation Xrotation Yrotation
				JOINT LeftShoulder
				{
					OFFSET	 0.080501	 0.160143	 0.002496
					CHANNELS 3 Zrotation Xrotation Yrotation
					JOINT LeftArm
					{
						OFFSET	 0.000000	 0.164363	 0.000000
						CHANNELS 3 Zrotation Xrotation Yrotation
						JOINT LeftForeArm
						{
							OFFSET	 0.000000	 0.364576	 0.000000
							CHANNELS 3 Zrotation Xrotation Yrotation
							JOINT LeftHand
							{
								OFFSET	 0.000000	 0.360812	 0.000000
								CHANNELS 3 Zrotation Xrotation Yrotation
								JOINT LeftHandIndex1
								{
									OFFSET	 0.000000	 0.086006	 0.000000
									CHANNELS 3 Zrotation Xrotation Yrotation
									JOINT LeftHandIndex2
									{
										OFFSET	 0.000000	 0.047237	 0.000000
										CHANNELS 3 Zrotation Xrotation Yrotation
										JOINT LeftHandIndex3
										{
											OFFSET	-0.004284	 0.038165	 0.000551
											CHANNELS 3 Zrotation Xrotation Yrotation
											End Site
											{
												OFFSET	-0.004284	 0.038165	 0.000551
											}
										}
									}
								}
							}
						}
					}
				}
				JOINT Neck
				{
					OFFSET	 0.000000	 0.176489	 0.000000
					CHANNELS 3 Zrotation Xrotation Yrotation
					JOINT Head
					{
						OFFSET	 0.000000	 0.077941	 0.001747
						CHANNELS 3 Zrotation Xrotation Yrotation
						End Site
						{
							OFFSET	 0.000000	 0.077941	 0.001747
						}
					}
				}
				JOINT RightShoulder
				{
					OFFSET	-0.080363	 0.159706	-0.000306
					CHANNELS 3 Zrotation Xrotation Yrotation
					JOINT RightArm
					{
						OFFSET	 0.000000	 0.164196	 0.000000
						CHANNELS 3 Zrotation Xrotation Yrotation
						JOINT RightForeArm
						{
							OFFSET	 0.000000	 0.365611	 0.000000
							CHANNELS 3 Zrotation Xrotation Yrotation
							JOINT RightHand
							{
								OFFSET	 0.000000	 0.360648	 0.000000
								CHANNELS 3 Zrotation Xrotation Yrotation
								JOINT RightHandIndex1
								{
									OFFSET	 0.000000	 0.069977	 0.000000
									CHANNELS 3 Zrotation Xrotation Yrotation
									JOINT RightHandIndex2
									{
										OFFSET	 0.000000	 0.052305	 0.000000
										CHANNELS 3 Zrotation Xrotation Yrotation
										JOINT RightHandIndex3
										{
											OFFSET	 0.009002	 0.042196	 0.000782
											CHANNELS 3 Zrotation Xrotation Yrotation
											End Site
											{
												OFFSET	 0.009002	 0.042196	 0.000782
											}
										}
									}
								}
							}
						}
					}
				}
			}
		}
	}
}
MOTION
Frames:    8
Frame Time: 0.03333334
-0.014200	 1.273862	 0.151465	 1.408600	 1.316487	 178.925700	-175.763000	 7.423192	-22.021200	 3.680794	-18.013350	 5.458081	 1.555218	 69.083020	-0.331880	 1.331492	 28.938720	-2.729976	 178.014200	 8.308932	 25.697350	-1.486419	-4.891349	-5.339882	-0.803231	 56.003650	-2.241098	-1.323870	 28.831180	 2.041310	 0.169852	 1.867866	-25.783740	-1.443671	 3.479428	-4.443437	-1.411487	-4.468419	 11.377990	-113.443100	 5.283200	 93.007550	 19.421700	 54.444260	 26.650820	 7.083009	-0.254034	-1.617338	-6.910345	-16.177770	-41.778300	-6.580301	 5.266122	 0.000000	 0.000000	 0.000000	 0.000000	 0.000000	 0.000000	 0.000000	 4.596612	-0.473692	-0.452805	 3.939305	 1.870316	 4.211123	 114.167800	-4.110750	-88.649650	-48.047900	 5.179077	 63.448350	-65.518660	-1.965707	 0.294563	-43.776210	-21.741740	 6.860686	-0.359045	 10.562710	 0.744378	 11.977540	 9.297910	-2.091895	-8.358945	 3.140459	 0.104948
-0.005958	 1.274490	 0.154148	 1.127386	 1.259811	-179.404600	-175.964500	 7.822725	-20.539280	 3.571561	-17.512580	 6.447624	 4.036827	 68.547320	-3.049696	 1.331492	 28.938720	-2.729976	 177.804200	 8.513098	 27.262340	-1.485474	-4.888196	-3.891555	 0.793531	 56.098870	-4.795277	-1.321771	 28.800790	 2.100163	-0.072288	 1.934938	-19.751070	-1.136964	 3.154096	-4.575494	-1.364609	-4.009638	 10.406150	-113.436300	 5.219412	 92.887670	 18.635070	 52.583480	 28.366810	 7.298619	-0.253650	-1.775972	-9.357718	-14.866020	-42.029250	-6.580301	 5.266122	 0.000000	 0.000000	 0.000000	 0.000000	 0.000000	 0.000000	 0.000000	 4.379095	-0.504161	-0.060764	 2.441778	 1.892824	 4.703829	 114.213900	-4.414485	-88.418500	-54.007480	-8.524615	 62.776360	-39.166880	-1.329705	 1.267642	-3.927186	-44.469620	 37.733770	-0.359132	 10.565150	 0.744395	 11.977560	 9.300318	-2.092406	-8.358970	 3.141686	 0.104853
-0.006593	 1.275056	 0.158293	 0.914459	 1.258566	 179.477700	-175.904100	 7.481023	-21.526400	 3.423892	-16.812540	 5.057375	 0.530304	 68.167040	 0.697658	 1.331492	 28.938720	-2.729976	 177.806900	 8.866244	 26.094840	-1.484239	-4.884187	-5.015429	-0.791503	 55.905710	-2.798213	-1.316642	 28.728390	 2.225670	-0.295099	 2.039929	-13.286970	-0.884314	 3.056942	-4.157960	-1.260802	-3.599896	 9.387094	-113.435200	 5.297329	 92.905050	 14.125590	 51.561400	 31.684480	 7.478538	-0.253079	-1.911272	-8.638481	-10.174180	-39.377530	-6.580301	 5.266122	 0.000000	 0.000000	 0.000000	 0.000000	 0.000000	 0.000000	 0.000000	 4.617218	-0.507750	 0.117986	 1.923028	 2.069700	 4.860446	 114.248000	-4.635128	-88.250310	-54.360260	 3.731421	 58.979730	-59.873060	-1.847802	 0.788016	-20.193670	-35.253810	 20.650870	-0.359327	 10.570440	 0.744442	 11.977620	 9.305531	-2.093524	-8.359018	 3.144331	 0.104657
-0.008121	 1.275485	 0.162791	 0.703954	 1.259546	 177.923300	-175.838600	 7.006961	-22.869140	 3.260770	-16.072410	 3.158994	-3.982803	 67.701070	 5.566715	 1.331492	 28.938720	-2.729976	 177.872800	 9.230277	 24.496470	-1.482845	-4.879632	-6.512550	-2.817001	 55.656680	-0.173714	-1.310873	 28.649790	 2.360890	-0.554847	 2.140827	-6.395381	-0.857104	 3.098970	-3.539214	-1.043115	-3.170631	 8.079862	-113.435000	 5.397231	 92.944140	 9.501248	 51.373390	 34.954550	 7.643226	-0.252236	-2.039993	-8.390785	-6.011269	-35.664620	-6.580301	 5.266122	 0.000000	 0.000000	 0.000000	 0.000000	 0.000000	 0.000000	 0.000000	 4.926110	-0.506196	 0.261822	 1.558475	 2.273399	 4.892338	 114.280400	-4.841147	-88.093030	-52.677370	 22.683130	 49.651860	-88.414340	-2.144017	-0.150516	-37.717910	-15.645500	-2.723809	-0.359537	 10.576140	 0.744493	 11.977690	 9.311156	-2.094732	-8.359073	 3.147185	 0.104447
 0.002354	 1.275284	 0.168882	 0.539875	 1.427973	 178.428600	-175.687000	 6.876498	-22.331820	 3.140079	-15.507200	 3.174875	-4.156998	 67.084210	 5.430505	 1.331492	 28.938720	-2.729976	 178.108900	 9.363553	 24.875960	-1.482235	-4.877636	-6.820514	-3.608338	 55.675250	 0.377223	-1.302094	 28.535640	 2.569097	-0.889968	 2.232052	 3.468614	-0.941092	 3.463968	-2.233808	-1.043715	-2.799149	 4.843263	-113.437400	 5.479860	 93.011370	 7.949196	 52.647870	 34.462200	 7.863010	-0.251873	-2.201174	-3.158660	-8.105365	-27.692100	-6.580301	 5.266122	 0.000000	 0.000000	 0.000000	 0.000000	 0.000000	 0.000000	 0.000000	 5.196557	-0.394489	-0.036326	 3.366675	 1.901775	 3.425606	 114.276100	-4.804885	-88.100330	-36.968780	 26.074950	 9.304163	-109.605900	-2.005497	-0.806125	-45.925350	-6.741426	-24.295480	-0.468075	 13.661720	 0.767306	 12.035030	 12.330380	-2.748387	-8.390229	 4.812465	-0.001878
 0.011085	 1.274683	 0.172668	 0.381964	 1.586899	 179.156200	-175.667400	 6.963307	-21.633310	 3.094112	-15.291170	 3.553309	-3.456894	 66.683150	 4.462595	 1.331492	 28.938720	-2.729976	 178.207100	 9.394676	 25.498330	-1.482303	-4.877834	-6.811494	-3.893967	 55.735440	 0.384680	-1.295391	 28.452360	 2.722389	-1.212744	 2.368700	 10.730200	-1.145301	 3.481040	-0.914088	-1.054271	-2.152177	 2.062860	-113.439600	 5.532358	 93.061740	 10.149390	 53.954270	 31.224670	 8.031928	-0.252404	-2.313233	 0.273343	-8.785420	-20.181430	-6.580301	 5.266122	 0.000000	 0.000000	 0.000000	 0.000000	 0.000000	 0.000000	 0.000000	 5.372139	-0.300323	-0.317539	 4.974243	 1.508769	 2.115100	 114.266600	-4.736542	-88.135090	-33.079460	 18.042570	-16.329980	-112.569900	-1.957401	-0.801710	-47.162910	-3.204454	-34.505350	-0.563052	 16.297710	 0.791876	 12.112820	 14.909050	-3.315894	-8.414456	 6.235181	-0.092221
 0.018100	 1.274127	 0.176729	 0.071486	 1.666761	-179.993800	-175.917300	 7.234379	-20.715620	 3.012778	-14.907640	 4.332941	-1.698979	 66.290280	 2.487851	 1.331492	 28.938720	-2.729976	 178.120000	 9.497400	 26.499930	-1.482722	-4.879224	-6.553704	-4.004717	 55.776420	-0.019438	-1.293132	 28.426610	 2.805446	-1.562228	 2.547039	 17.345080	-1.260023	 3.354490	 0.300298	-1.158669	-1.274088	-0.887825	-113.440700	 5.363053	 93.008130	 14.110130	 54.589150	 28.225050	 8.203017	-0.253376	-2.421688	 2.754799	-9.153378	-12.867420	-6.580301	 5.266122	 0.000000	 0.000000	 0.000000	 0.000000	 0.000000	 0.000000	 0.000000	 5.055473	-0.249743	-0.482369	 5.090907	 1.162919	 0.971888	 114.249000	-4.616007	-88.210320	-27.779480	 23.475480	-24.687060	-105.440600	-2.042627	-0.427296	-26.550220	-1.381122	-24.111620	-0.682299	 19.509120	 0.828544	 12.245280	 18.049480	-4.022600	-8.438784	 7.813528	-0.192060
 0.022012	 1.273647	 0.179213	-0.192659	 1.736887	-179.197500	-176.240900	 7.490554	-19.839690	 2.959099	-14.653790	 5.109264	 0.114104	 66.053370	 0.555201	 1.331492	 28.938720	-2.729976	 177.951300	 9.502850	 27.475570	-1.483167	-4.880680	-6.291749	-3.957079	 55.863940	-0.434153	-1.291502	 28.408830	 2.874877	-1.842919	 2.702538	 22.594960	-1.247105	 3.110089	 1.137190	-1.301131	-0.430897	-3.676655	-113.441800	 5.183099	 92.947580	 17.924990	 54.550670	 25.471830	 8.358681	-0.254235	-2.519578	 5.161964	-8.426000	-6.737974	-6.580301	 5.266122	 0.000000	 0.000000	 0.000000	 0.000000	 0.000000	 0.000000	 0.000000	 4.710800	-0.206663	-0.622320	 5.041251	 0.820489	-0.076887	 114.232000	-4.499005	-88.284140	-21.626170	 25.820870	-25.973270	-95.665860	-2.107475	 0.049016	-12.381680	 4.106102	-4.679463	-0.799320	 22.541480	 0.870538	 12.410810	 21.013220	-4.709766	-8.459114	 9.290106	-0.285219
